<?xml version="1.0" encoding="UTF-8" standalone="no"?>
<!DOCTYPE svg PUBLIC "-//W3C//DTD SVG 1.1//EN"
 "http://www.w3.org/Graphics/SVG/1.1/DTD/svg11.dtd">
<!-- Generated by graphviz version 2.44.1 (20200629.0846)
 -->
<!-- Title: dependencies Pages: 1 -->
<svg width="3334pt" height="366pt"
 viewBox="0.00 0.00 3334.00 366.00" xmlns="http://www.w3.org/2000/svg" xmlns:xlink="http://www.w3.org/1999/xlink">
<g id="graph0" class="graph" transform="scale(1 1) rotate(0) translate(4 362)">
<title>dependencies</title>
<polygon fill="white" stroke="transparent" points="-4,4 -4,-362 3330,-362 3330,4 -4,4"/>
<text text-anchor="start" x="1642.01" y="-42.4" font-family="sans-serif" font-weight="bold" font-size="14.00">Legend</text>
<polygon fill="#ffffb3" stroke="transparent" points="1429,-10 1429,-30 1449,-30 1449,-10 1429,-10"/>
<text text-anchor="start" x="1452.63" y="-15.4" font-family="sans-serif" font-size="14.00"> &#160;Declarations</text>
<polygon fill="#8dd3c7" stroke="transparent" points="1542,-10 1542,-30 1562,-30 1562,-10 1542,-10"/>
<text text-anchor="start" x="1565.73" y="-15.4" font-family="sans-serif" font-size="14.00"> &#160;Module</text>
<polygon fill="#80b1d3" stroke="transparent" points="1628,-10 1628,-30 1648,-30 1648,-10 1628,-10"/>
<text text-anchor="start" x="1651.78" y="-15.4" font-family="sans-serif" font-size="14.00"> &#160;Bootstrap</text>
<polygon fill="#fdb462" stroke="transparent" points="1725,-10 1725,-30 1745,-30 1745,-10 1725,-10"/>
<text text-anchor="start" x="1748.67" y="-15.4" font-family="sans-serif" font-size="14.00"> &#160;Providers</text>
<polygon fill="#fb8072" stroke="transparent" points="1821,-10 1821,-30 1841,-30 1841,-10 1821,-10"/>
<text text-anchor="start" x="1844.73" y="-15.4" font-family="sans-serif" font-size="14.00"> &#160;Exports</text>
<g id="clust1" class="cluster">
<title>cluster_AppModule</title>
<polygon fill="none" stroke="black" stroke-dasharray="1,5" points="8,-146 8,-350 714,-350 714,-146 8,-146"/>
</g>
<g id="clust2" class="cluster">
<title>cluster_AppModule_declarations</title>
<polygon fill="none" stroke="black" points="16,-154 16,-206 138,-206 138,-154 16,-154"/>
</g>
<g id="clust4" class="cluster">
<title>cluster_AppModule_imports</title>
<polygon fill="none" stroke="black" points="146,-154 146,-206 706,-206 706,-154 146,-154"/>
</g>
<g id="clust6" class="cluster">
<title>cluster_AppModule_bootstrap</title>
<polygon fill="none" stroke="black" points="330,-290 330,-342 454,-342 454,-290 330,-290"/>
</g>
<g id="clust14" class="cluster">
<title>cluster_ClientsModule</title>
<polygon fill="none" stroke="black" stroke-dasharray="1,5" points="1061,-70 1061,-206 1811,-206 1811,-70 1061,-70"/>
</g>
<g id="clust15" class="cluster">
<title>cluster_ClientsModule_declarations</title>
<polygon fill="none" stroke="black" points="1237,-78 1237,-130 1803,-130 1803,-78 1237,-78"/>
</g>
<g id="clust19" class="cluster">
<title>cluster_ClientsModule_imports</title>
<polygon fill="none" stroke="black" points="1069,-78 1069,-130 1229,-130 1229,-78 1069,-78"/>
</g>
<g id="clust29" class="cluster">
<title>cluster_CoreModule</title>
<polygon fill="none" stroke="black" stroke-dasharray="1,5" points="722,-214 722,-282 1550,-282 1550,-214 722,-214"/>
</g>
<g id="clust30" class="cluster">
<title>cluster_CoreModule_declarations</title>
<polygon fill="none" stroke="black" points="1146,-222 1146,-274 1542,-274 1542,-222 1146,-222"/>
</g>
<g id="clust35" class="cluster">
<title>cluster_CoreModule_exports</title>
<polygon fill="none" stroke="black" points="730,-222 730,-274 1138,-274 1138,-222 730,-222"/>
</g>
<g id="clust38" class="cluster">
<title>cluster_IconsModule</title>
<polygon fill="none" stroke="black" stroke-dasharray="1,5" points="1558,-214 1558,-282 2816,-282 2816,-214 1558,-214"/>
</g>
<g id="clust39" class="cluster">
<title>cluster_IconsModule_declarations</title>
<polygon fill="none" stroke="black" points="2198,-222 2198,-274 2808,-274 2808,-222 2198,-222"/>
</g>
<g id="clust45" class="cluster">
<title>cluster_IconsModule_exports</title>
<polygon fill="none" stroke="black" points="1566,-222 1566,-274 2190,-274 2190,-222 1566,-222"/>
</g>
<g id="clust48" class="cluster">
<title>cluster_LoginModule</title>
<polygon fill="none" stroke="black" stroke-dasharray="1,5" points="47,-70 47,-138 383,-138 383,-70 47,-70"/>
</g>
<g id="clust49" class="cluster">
<title>cluster_LoginModule_declarations</title>
<polygon fill="none" stroke="black" points="217,-78 217,-130 375,-130 375,-78 217,-78"/>
</g>
<g id="clust51" class="cluster">
<title>cluster_LoginModule_imports</title>
<polygon fill="none" stroke="black" points="55,-78 55,-130 209,-130 209,-78 55,-78"/>
</g>
<g id="clust61" class="cluster">
<title>cluster_OrdersModule</title>
<polygon fill="none" stroke="black" stroke-dasharray="1,5" points="1988,-70 1988,-206 2730,-206 2730,-70 1988,-70"/>
</g>
<g id="clust62" class="cluster">
<title>cluster_OrdersModule_declarations</title>
<polygon fill="none" stroke="black" points="2162,-78 2162,-130 2722,-130 2722,-78 2162,-78"/>
</g>
<g id="clust66" class="cluster">
<title>cluster_OrdersModule_imports</title>
<polygon fill="none" stroke="black" points="1996,-78 1996,-130 2154,-130 2154,-78 1996,-78"/>
</g>
<g id="clust76" class="cluster">
<title>cluster_PageNotFoundModule</title>
<polygon fill="none" stroke="black" stroke-dasharray="1,5" points="2823,-70 2823,-206 3233,-206 3233,-70 2823,-70"/>
</g>
<g id="clust77" class="cluster">
<title>cluster_PageNotFoundModule_declarations</title>
<polygon fill="none" stroke="black" points="3043,-78 3043,-130 3225,-130 3225,-78 3043,-78"/>
</g>
<g id="clust79" class="cluster">
<title>cluster_PageNotFoundModule_imports</title>
<polygon fill="none" stroke="black" points="2831,-78 2831,-130 3035,-130 3035,-78 2831,-78"/>
</g>
<g id="clust107" class="cluster">
<title>cluster_UiModule</title>
<polygon fill="none" stroke="black" stroke-dasharray="1,5" points="2824,-214 2824,-282 3318,-282 3318,-214 2824,-214"/>
</g>
<g id="clust108" class="cluster">
<title>cluster_UiModule_declarations</title>
<polygon fill="none" stroke="black" points="3078,-222 3078,-274 3310,-274 3310,-222 3078,-222"/>
</g>
<g id="clust112" class="cluster">
<title>cluster_UiModule_exports</title>
<polygon fill="none" stroke="black" points="2832,-222 2832,-274 3070,-274 3070,-222 2832,-222"/>
</g>
<!-- AppComponent -->
<g id="node1" class="node">
<title>AppComponent</title>
<polygon fill="#ffffb3" stroke="black" points="129.94,-198 24.06,-198 24.06,-162 129.94,-162 129.94,-198"/>
<text text-anchor="middle" x="77" y="-175.8" font-family="Times,serif" font-size="14.00">AppComponent</text>
</g>
<!-- AppModule -->
<g id="node2" class="node">
<title>AppModule</title>
<polygon fill="#8dd3c7" stroke="black" points="433.66,-266 430.66,-270 409.66,-270 406.66,-266 350.34,-266 350.34,-230 433.66,-230 433.66,-266"/>
<text text-anchor="middle" x="392" y="-243.8" font-family="Times,serif" font-size="14.00">AppModule</text>
</g>
<!-- AppComponent&#45;&gt;AppModule -->
<g id="edge1" class="edge">
<title>AppComponent&#45;&gt;AppModule</title>
<path fill="none" stroke="black" d="M77,-198.29C77,-220.21 77,-254 77,-254 77,-254 340.17,-254 340.17,-254"/>
<polygon fill="black" stroke="black" points="340.17,-257.5 350.17,-254 340.17,-250.5 340.17,-257.5"/>
</g>
<!-- AppComponent  -->
<g id="node8" class="node">
<title>AppComponent </title>
<polygon fill="#80b1d3" stroke="black" points="446.44,-334 337.56,-334 337.56,-298 446.44,-298 446.44,-334"/>
<text text-anchor="middle" x="392" y="-311.8" font-family="Times,serif" font-size="14.00">AppComponent </text>
</g>
<!-- AppModule&#45;&gt;AppComponent  -->
<g id="edge7" class="edge">
<title>AppModule&#45;&gt;AppComponent </title>
<path fill="none" stroke="black" stroke-dasharray="1,5" d="M392,-266.22C392,-266.22 392,-287.73 392,-287.73"/>
<polygon fill="black" stroke="black" points="388.5,-287.73 392,-297.73 395.5,-287.73 388.5,-287.73"/>
</g>
<!-- AppRoutingModule -->
<g id="node3" class="node">
<title>AppRoutingModule</title>
<polygon fill="#8dd3c7" stroke="black" points="393.27,-198 390.27,-202 369.27,-202 366.27,-198 264.73,-198 264.73,-162 393.27,-162 393.27,-198"/>
<text text-anchor="middle" x="329" y="-175.8" font-family="Times,serif" font-size="14.00">AppRoutingModule</text>
</g>
<!-- AppRoutingModule&#45;&gt;AppModule -->
<g id="edge2" class="edge">
<title>AppRoutingModule&#45;&gt;AppModule</title>
<path fill="none" stroke="black" d="M371.78,-198.22C371.78,-198.22 371.78,-219.73 371.78,-219.73"/>
<polygon fill="black" stroke="black" points="368.28,-219.73 371.78,-229.73 375.28,-219.73 368.28,-219.73"/>
</g>
<!-- CoreModule -->
<g id="node4" class="node">
<title>CoreModule</title>
<polygon fill="#8dd3c7" stroke="black" points="498.26,-198 495.26,-202 474.26,-202 471.26,-198 411.74,-198 411.74,-162 498.26,-162 498.26,-198"/>
<text text-anchor="middle" x="455" y="-175.8" font-family="Times,serif" font-size="14.00">CoreModule</text>
</g>
<!-- CoreModule&#45;&gt;AppModule -->
<g id="edge3" class="edge">
<title>CoreModule&#45;&gt;AppModule</title>
<path fill="none" stroke="black" d="M422.72,-198.22C422.72,-198.22 422.72,-219.73 422.72,-219.73"/>
<polygon fill="black" stroke="black" points="419.22,-219.73 422.72,-229.73 426.22,-219.73 419.22,-219.73"/>
</g>
<!-- FooterComponent  -->
<g id="node17" class="node">
<title>FooterComponent </title>
<polygon fill="#fb8072" stroke="black" points="859.88,-266 738.12,-266 738.12,-230 859.88,-230 859.88,-266"/>
<text text-anchor="middle" x="799" y="-243.8" font-family="Times,serif" font-size="14.00">FooterComponent </text>
</g>
<!-- CoreModule&#45;&gt;FooterComponent  -->
<g id="edge15" class="edge">
<title>CoreModule&#45;&gt;FooterComponent </title>
<path fill="none" stroke="black" stroke-dasharray="5,2" d="M490.96,-198.02C490.96,-215.37 490.96,-239 490.96,-239 490.96,-239 728.14,-239 728.14,-239"/>
<polygon fill="black" stroke="black" points="728.14,-242.5 738.14,-239 728.14,-235.5 728.14,-242.5"/>
</g>
<!-- HeaderComponent  -->
<g id="node18" class="node">
<title>HeaderComponent </title>
<polygon fill="#fb8072" stroke="black" points="1129.74,-266 1004.26,-266 1004.26,-230 1129.74,-230 1129.74,-266"/>
<text text-anchor="middle" x="1067" y="-243.8" font-family="Times,serif" font-size="14.00">HeaderComponent </text>
</g>
<!-- CoreModule&#45;&gt;HeaderComponent  -->
<g id="edge16" class="edge">
<title>CoreModule&#45;&gt;HeaderComponent </title>
<path fill="none" stroke="black" stroke-dasharray="5,2" d="M483.55,-198.18C483.55,-211.04 483.55,-226 483.55,-226 483.55,-226 1040.61,-226 1040.61,-226 1040.61,-226 1040.61,-226.38 1040.61,-226.38"/>
<polygon fill="black" stroke="black" points="1037.11,-219.83 1040.61,-229.83 1044.11,-219.83 1037.11,-219.83"/>
</g>
<!-- NavComponent  -->
<g id="node19" class="node">
<title>NavComponent </title>
<polygon fill="#fb8072" stroke="black" points="986.15,-266 877.85,-266 877.85,-230 986.15,-230 986.15,-266"/>
<text text-anchor="middle" x="932" y="-243.8" font-family="Times,serif" font-size="14.00">NavComponent </text>
</g>
<!-- CoreModule&#45;&gt;NavComponent  -->
<g id="edge17" class="edge">
<title>CoreModule&#45;&gt;NavComponent </title>
<path fill="none" stroke="black" stroke-dasharray="5,2" d="M476.13,-198.15C476.13,-211.74 476.13,-228 476.13,-228 476.13,-228 932,-228 932,-228 932,-228 932,-228.18 932,-228.18"/>
<polygon fill="black" stroke="black" points="928.5,-219.85 932,-229.85 935.5,-219.85 928.5,-219.85"/>
</g>
<!-- IconsModule -->
<g id="node5" class="node">
<title>IconsModule</title>
<polygon fill="#8dd3c7" stroke="black" points="605.87,-198 602.87,-202 581.87,-202 578.87,-198 516.13,-198 516.13,-162 605.87,-162 605.87,-198"/>
<text text-anchor="middle" x="561" y="-175.8" font-family="Times,serif" font-size="14.00">IconsModule</text>
</g>
<!-- IconsModule&#45;&gt;AppModule -->
<g id="edge4" class="edge">
<title>IconsModule&#45;&gt;AppModule</title>
<path fill="none" stroke="black" d="M596.95,-198.22C596.95,-218.37 596.95,-248 596.95,-248 596.95,-248 443.97,-248 443.97,-248"/>
<polygon fill="black" stroke="black" points="443.97,-244.5 433.97,-248 443.97,-251.5 443.97,-244.5"/>
</g>
<!-- IconCloseComponent  -->
<g id="node24" class="node">
<title>IconCloseComponent </title>
<polygon fill="#fb8072" stroke="black" points="1879.59,-266 1738.41,-266 1738.41,-230 1879.59,-230 1879.59,-266"/>
<text text-anchor="middle" x="1809" y="-243.8" font-family="Times,serif" font-size="14.00">IconCloseComponent </text>
</g>
<!-- IconsModule&#45;&gt;IconCloseComponent  -->
<g id="edge22" class="edge">
<title>IconsModule&#45;&gt;IconCloseComponent </title>
<path fill="none" stroke="black" stroke-dasharray="5,2" d="M569.99,-198.42C569.99,-207.28 569.99,-216 569.99,-216 569.99,-216 1766.68,-216 1766.68,-216 1766.68,-216 1766.68,-219.76 1766.68,-219.76"/>
<polygon fill="black" stroke="black" points="1763.18,-219.76 1766.68,-229.76 1770.18,-219.76 1763.18,-219.76"/>
</g>
<!-- IconDeleteComponent  -->
<g id="node25" class="node">
<title>IconDeleteComponent </title>
<polygon fill="#fb8072" stroke="black" points="1720.24,-266 1573.76,-266 1573.76,-230 1720.24,-230 1720.24,-266"/>
<text text-anchor="middle" x="1647" y="-243.8" font-family="Times,serif" font-size="14.00">IconDeleteComponent </text>
</g>
<!-- IconsModule&#45;&gt;IconDeleteComponent  -->
<g id="edge23" class="edge">
<title>IconsModule&#45;&gt;IconDeleteComponent </title>
<path fill="none" stroke="black" stroke-dasharray="5,2" d="M561,-198.11C561,-207.9 561,-218 561,-218 561,-218 1589.33,-218 1589.33,-218 1589.33,-218 1589.33,-219.86 1589.33,-219.86"/>
<polygon fill="black" stroke="black" points="1585.83,-219.86 1589.33,-229.86 1592.83,-219.86 1585.83,-219.86"/>
</g>
<!-- IconEditComponent  -->
<g id="node26" class="node">
<title>IconEditComponent </title>
<polygon fill="#fb8072" stroke="black" points="2181.54,-266 2048.46,-266 2048.46,-230 2181.54,-230 2181.54,-266"/>
<text text-anchor="middle" x="2115" y="-243.8" font-family="Times,serif" font-size="14.00">IconEditComponent </text>
</g>
<!-- IconsModule&#45;&gt;IconEditComponent  -->
<g id="edge24" class="edge">
<title>IconsModule&#45;&gt;IconEditComponent </title>
<path fill="none" stroke="black" stroke-dasharray="5,2" d="M587.96,-198.03C587.96,-204.85 587.96,-211 587.96,-211 587.96,-211 2081.11,-211 2081.11,-211 2081.11,-211 2081.11,-219.93 2081.11,-219.93"/>
<polygon fill="black" stroke="black" points="2077.61,-219.93 2081.11,-229.93 2084.61,-219.93 2077.61,-219.93"/>
</g>
<!-- IconNavComponent  -->
<g id="node27" class="node">
<title>IconNavComponent </title>
<polygon fill="#fb8072" stroke="black" points="2030.53,-266 1897.47,-266 1897.47,-230 2030.53,-230 2030.53,-266"/>
<text text-anchor="middle" x="1964" y="-243.8" font-family="Times,serif" font-size="14.00">IconNavComponent </text>
</g>
<!-- IconsModule&#45;&gt;IconNavComponent  -->
<g id="edge25" class="edge">
<title>IconsModule&#45;&gt;IconNavComponent </title>
<path fill="none" stroke="black" stroke-dasharray="5,2" d="M578.97,-198.04C578.97,-205.75 578.97,-213 578.97,-213 578.97,-213 1950.55,-213 1950.55,-213 1950.55,-213 1950.55,-219.68 1950.55,-219.68"/>
<polygon fill="black" stroke="black" points="1947.05,-219.68 1950.55,-229.68 1954.05,-219.68 1947.05,-219.68"/>
</g>
<!-- LoginModule -->
<g id="node6" class="node">
<title>LoginModule</title>
<polygon fill="#8dd3c7" stroke="black" points="246.49,-198 243.49,-202 222.49,-202 219.49,-198 153.51,-198 153.51,-162 246.49,-162 246.49,-198"/>
<text text-anchor="middle" x="200" y="-175.8" font-family="Times,serif" font-size="14.00">LoginModule</text>
</g>
<!-- LoginModule&#45;&gt;AppModule -->
<g id="edge5" class="edge">
<title>LoginModule&#45;&gt;AppModule</title>
<path fill="none" stroke="black" d="M200,-198.27C200,-216.56 200,-242 200,-242 200,-242 340.34,-242 340.34,-242"/>
<polygon fill="black" stroke="black" points="340.34,-245.5 350.34,-242 340.34,-238.5 340.34,-245.5"/>
</g>
<!-- UiModule -->
<g id="node7" class="node">
<title>UiModule</title>
<polygon fill="#8dd3c7" stroke="black" points="697.55,-198 694.55,-202 673.55,-202 670.55,-198 624.45,-198 624.45,-162 697.55,-162 697.55,-198"/>
<text text-anchor="middle" x="661" y="-175.8" font-family="Times,serif" font-size="14.00">UiModule</text>
</g>
<!-- UiModule&#45;&gt;AppModule -->
<g id="edge6" class="edge">
<title>UiModule&#45;&gt;AppModule</title>
<path fill="none" stroke="black" d="M638.94,-198.25C638.94,-221.02 638.94,-257 638.94,-257 638.94,-257 443.89,-257 443.89,-257"/>
<polygon fill="black" stroke="black" points="443.89,-253.5 433.89,-257 443.89,-260.5 443.89,-253.5"/>
</g>
<!-- Ui2Component  -->
<g id="node40" class="node">
<title>Ui2Component </title>
<polygon fill="#fb8072" stroke="black" points="3061.83,-266 2956.17,-266 2956.17,-230 3061.83,-230 3061.83,-266"/>
<text text-anchor="middle" x="3009" y="-243.8" font-family="Times,serif" font-size="14.00">Ui2Component </text>
</g>
<!-- UiModule&#45;&gt;Ui2Component  -->
<g id="edge36" class="edge">
<title>UiModule&#45;&gt;Ui2Component </title>
<path fill="none" stroke="black" stroke-dasharray="5,2" d="M668.35,-198.24C668.35,-226.34 668.35,-277 668.35,-277 668.35,-277 3009,-277 3009,-277 3009,-277 3009,-275.92 3009,-275.92"/>
<polygon fill="black" stroke="black" points="3012.5,-276.2 3009,-266.2 3005.5,-276.2 3012.5,-276.2"/>
</g>
<!-- UiComponent  -->
<g id="node41" class="node">
<title>UiComponent </title>
<polygon fill="#fb8072" stroke="black" points="2938.33,-266 2839.67,-266 2839.67,-230 2938.33,-230 2938.33,-266"/>
<text text-anchor="middle" x="2889" y="-243.8" font-family="Times,serif" font-size="14.00">UiComponent </text>
</g>
<!-- UiModule&#45;&gt;UiComponent  -->
<g id="edge37" class="edge">
<title>UiModule&#45;&gt;UiComponent </title>
<path fill="none" stroke="black" stroke-dasharray="5,2" d="M683.06,-198.08C683.06,-199.85 683.06,-201 683.06,-201 683.06,-201 2889,-201 2889,-201 2889,-201 2889,-219.96 2889,-219.96"/>
<polygon fill="black" stroke="black" points="2885.5,-219.96 2889,-229.96 2892.5,-219.96 2885.5,-219.96"/>
</g>
<!-- PageAddClientsComponent -->
<g id="node9" class="node">
<title>PageAddClientsComponent</title>
<polygon fill="#ffffb3" stroke="black" points="1795.32,-122 1622.68,-122 1622.68,-86 1795.32,-86 1795.32,-122"/>
<text text-anchor="middle" x="1709" y="-99.8" font-family="Times,serif" font-size="14.00">PageAddClientsComponent</text>
</g>
<!-- ClientsModule -->
<g id="node12" class="node">
<title>ClientsModule</title>
<polygon fill="#8dd3c7" stroke="black" points="1473.72,-198 1470.72,-202 1449.72,-202 1446.72,-198 1374.28,-198 1374.28,-162 1473.72,-162 1473.72,-198"/>
<text text-anchor="middle" x="1424" y="-175.8" font-family="Times,serif" font-size="14.00">ClientsModule</text>
</g>
<!-- PageAddClientsComponent&#45;&gt;ClientsModule -->
<g id="edge8" class="edge">
<title>PageAddClientsComponent&#45;&gt;ClientsModule</title>
<path fill="none" stroke="black" d="M1671.48,-122.03C1671.48,-142.77 1671.48,-174 1671.48,-174 1671.48,-174 1483.78,-174 1483.78,-174"/>
<polygon fill="black" stroke="black" points="1483.78,-170.5 1473.78,-174 1483.78,-177.5 1483.78,-170.5"/>
</g>
<!-- PageEditClientsComponent -->
<g id="node10" class="node">
<title>PageEditClientsComponent</title>
<polygon fill="#ffffb3" stroke="black" points="1604.55,-122 1433.45,-122 1433.45,-86 1604.55,-86 1604.55,-122"/>
<text text-anchor="middle" x="1519" y="-99.8" font-family="Times,serif" font-size="14.00">PageEditClientsComponent</text>
</g>
<!-- PageEditClientsComponent&#45;&gt;ClientsModule -->
<g id="edge9" class="edge">
<title>PageEditClientsComponent&#45;&gt;ClientsModule</title>
<path fill="none" stroke="black" d="M1453.42,-122.01C1453.42,-122.01 1453.42,-151.85 1453.42,-151.85"/>
<polygon fill="black" stroke="black" points="1449.92,-151.85 1453.42,-161.85 1456.92,-151.85 1449.92,-151.85"/>
</g>
<!-- PageListClientsComponent -->
<g id="node11" class="node">
<title>PageListClientsComponent</title>
<polygon fill="#ffffb3" stroke="black" points="1414.99,-122 1245.01,-122 1245.01,-86 1414.99,-86 1414.99,-122"/>
<text text-anchor="middle" x="1330" y="-99.8" font-family="Times,serif" font-size="14.00">PageListClientsComponent</text>
</g>
<!-- PageListClientsComponent&#45;&gt;ClientsModule -->
<g id="edge10" class="edge">
<title>PageListClientsComponent&#45;&gt;ClientsModule</title>
<path fill="none" stroke="black" d="M1394.69,-122.01C1394.69,-122.01 1394.69,-151.85 1394.69,-151.85"/>
<polygon fill="black" stroke="black" points="1391.19,-151.85 1394.69,-161.85 1398.19,-151.85 1391.19,-151.85"/>
</g>
<!-- ClientsRoutingModule -->
<g id="node13" class="node">
<title>ClientsRoutingModule</title>
<polygon fill="#8dd3c7" stroke="black" points="1221.34,-122 1218.34,-126 1197.34,-126 1194.34,-122 1076.66,-122 1076.66,-86 1221.34,-86 1221.34,-122"/>
<text text-anchor="middle" x="1149" y="-99.8" font-family="Times,serif" font-size="14.00">ClientsRoutingModule</text>
</g>
<!-- ClientsRoutingModule&#45;&gt;ClientsModule -->
<g id="edge11" class="edge">
<title>ClientsRoutingModule&#45;&gt;ClientsModule</title>
<path fill="none" stroke="black" d="M1198.8,-122.01C1198.8,-144.49 1198.8,-180 1198.8,-180 1198.8,-180 1364.3,-180 1364.3,-180"/>
<polygon fill="black" stroke="black" points="1364.3,-183.5 1374.3,-180 1364.3,-176.5 1364.3,-183.5"/>
</g>
<!-- FooterComponent -->
<g id="node14" class="node">
<title>FooterComponent</title>
<polygon fill="#ffffb3" stroke="black" points="1271.88,-266 1154.12,-266 1154.12,-230 1271.88,-230 1271.88,-266"/>
<text text-anchor="middle" x="1213" y="-243.8" font-family="Times,serif" font-size="14.00">FooterComponent</text>
</g>
<!-- FooterComponent&#45;&gt;CoreModule -->
<g id="edge12" class="edge">
<title>FooterComponent&#45;&gt;CoreModule</title>
<path fill="none" stroke="black" d="M1176.43,-229.81C1176.43,-226.46 1176.43,-224 1176.43,-224 1176.43,-224 453.89,-224 453.89,-224 453.89,-224 453.89,-208.15 453.89,-208.15"/>
<polygon fill="black" stroke="black" points="457.39,-208.15 453.89,-198.15 450.39,-208.15 457.39,-208.15"/>
</g>
<!-- HeaderComponent -->
<g id="node15" class="node">
<title>HeaderComponent</title>
<polygon fill="#ffffb3" stroke="black" points="1533.74,-266 1412.26,-266 1412.26,-230 1533.74,-230 1533.74,-266"/>
<text text-anchor="middle" x="1473" y="-243.8" font-family="Times,serif" font-size="14.00">HeaderComponent</text>
</g>
<!-- HeaderComponent&#45;&gt;CoreModule -->
<g id="edge13" class="edge">
<title>HeaderComponent&#45;&gt;CoreModule</title>
<path fill="none" stroke="black" d="M1442.87,-229.79C1442.87,-224.45 1442.87,-220 1442.87,-220 1442.87,-220 468.72,-220 468.72,-220 468.72,-220 468.72,-208.13 468.72,-208.13"/>
<polygon fill="black" stroke="black" points="472.22,-208.13 468.72,-198.13 465.22,-208.13 472.22,-208.13"/>
</g>
<!-- NavComponent -->
<g id="node16" class="node">
<title>NavComponent</title>
<polygon fill="#ffffb3" stroke="black" points="1394.15,-266 1289.85,-266 1289.85,-230 1394.15,-230 1394.15,-266"/>
<text text-anchor="middle" x="1342" y="-243.8" font-family="Times,serif" font-size="14.00">NavComponent</text>
</g>
<!-- NavComponent&#45;&gt;CoreModule -->
<g id="edge14" class="edge">
<title>NavComponent&#45;&gt;CoreModule</title>
<path fill="none" stroke="black" d="M1332.03,-229.94C1332.03,-225.51 1332.03,-222 1332.03,-222 1332.03,-222 461.3,-222 461.3,-222 461.3,-222 461.3,-208.06 461.3,-208.06"/>
<polygon fill="black" stroke="black" points="464.8,-208.06 461.3,-198.06 457.8,-208.06 464.8,-208.06"/>
</g>
<!-- IconCloseComponent -->
<g id="node20" class="node">
<title>IconCloseComponent</title>
<polygon fill="#ffffb3" stroke="black" points="2504.09,-266 2365.91,-266 2365.91,-230 2504.09,-230 2504.09,-266"/>
<text text-anchor="middle" x="2435" y="-243.8" font-family="Times,serif" font-size="14.00">IconCloseComponent</text>
</g>
<!-- IconCloseComponent&#45;&gt;IconsModule -->
<g id="edge18" class="edge">
<title>IconCloseComponent&#45;&gt;IconsModule</title>
<path fill="none" stroke="black" d="M2380.89,-229.9C2380.89,-218.91 2380.89,-207 2380.89,-207 2380.89,-207 534.04,-207 534.04,-207 534.04,-207 534.04,-206.12 534.04,-206.12"/>
<polygon fill="black" stroke="black" points="537.54,-208.16 534.04,-198.16 530.54,-208.16 537.54,-208.16"/>
</g>
<!-- IconDeleteComponent -->
<g id="node21" class="node">
<title>IconDeleteComponent</title>
<polygon fill="#ffffb3" stroke="black" points="2348.24,-266 2205.76,-266 2205.76,-230 2348.24,-230 2348.24,-266"/>
<text text-anchor="middle" x="2277" y="-243.8" font-family="Times,serif" font-size="14.00">IconDeleteComponent</text>
</g>
<!-- IconDeleteComponent&#45;&gt;IconsModule -->
<g id="edge19" class="edge">
<title>IconDeleteComponent&#45;&gt;IconsModule</title>
<path fill="none" stroke="black" d="M2251.91,-229.87C2251.91,-219.69 2251.91,-209 2251.91,-209 2251.91,-209 525.05,-209 525.05,-209 525.05,-209 525.05,-207.92 525.05,-207.92"/>
<polygon fill="black" stroke="black" points="528.55,-208.2 525.05,-198.2 521.55,-208.2 528.55,-208.2"/>
</g>
<!-- IconEditComponent -->
<g id="node22" class="node">
<title>IconEditComponent</title>
<polygon fill="#ffffb3" stroke="black" points="2799.54,-266 2670.46,-266 2670.46,-230 2799.54,-230 2799.54,-266"/>
<text text-anchor="middle" x="2735" y="-243.8" font-family="Times,serif" font-size="14.00">IconEditComponent</text>
</g>
<!-- IconEditComponent&#45;&gt;IconsModule -->
<g id="edge20" class="edge">
<title>IconEditComponent&#45;&gt;IconsModule</title>
<path fill="none" stroke="black" d="M2692.3,-229.96C2692.3,-217.44 2692.3,-203 2692.3,-203 2692.3,-203 552.01,-203 552.01,-203 552.01,-203 552.01,-202.51 552.01,-202.51"/>
<polygon fill="black" stroke="black" points="555.51,-208.12 552.01,-198.12 548.51,-208.12 555.51,-208.12"/>
</g>
<!-- IconNavComponent -->
<g id="node23" class="node">
<title>IconNavComponent</title>
<polygon fill="#ffffb3" stroke="black" points="2651.53,-266 2522.47,-266 2522.47,-230 2651.53,-230 2651.53,-266"/>
<text text-anchor="middle" x="2587" y="-243.8" font-family="Times,serif" font-size="14.00">IconNavComponent</text>
</g>
<!-- IconNavComponent&#45;&gt;IconsModule -->
<g id="edge21" class="edge">
<title>IconNavComponent&#45;&gt;IconsModule</title>
<path fill="none" stroke="black" d="M2534.81,-229.51C2534.81,-217.86 2534.81,-205 2534.81,-205 2534.81,-205 543.03,-205 543.03,-205 543.03,-205 543.03,-204.32 543.03,-204.32"/>
<polygon fill="black" stroke="black" points="546.53,-208.17 543.03,-198.17 539.53,-208.17 546.53,-208.17"/>
</g>
<!-- PageLoginComponent -->
<g id="node28" class="node">
<title>PageLoginComponent</title>
<polygon fill="#ffffb3" stroke="black" points="366.99,-122 225.01,-122 225.01,-86 366.99,-86 366.99,-122"/>
<text text-anchor="middle" x="296" y="-99.8" font-family="Times,serif" font-size="14.00">PageLoginComponent</text>
</g>
<!-- PageLoginComponent&#45;&gt;LoginModule -->
<g id="edge26" class="edge">
<title>PageLoginComponent&#45;&gt;LoginModule</title>
<path fill="none" stroke="black" d="M235.75,-122.01C235.75,-122.01 235.75,-151.85 235.75,-151.85"/>
<polygon fill="black" stroke="black" points="232.25,-151.85 235.75,-161.85 239.25,-151.85 232.25,-151.85"/>
</g>
<!-- LoginRoutingModule -->
<g id="node29" class="node">
<title>LoginRoutingModule</title>
<polygon fill="#8dd3c7" stroke="black" points="201.11,-122 198.11,-126 177.11,-126 174.11,-122 62.89,-122 62.89,-86 201.11,-86 201.11,-122"/>
<text text-anchor="middle" x="132" y="-99.8" font-family="Times,serif" font-size="14.00">LoginRoutingModule</text>
</g>
<!-- LoginRoutingModule&#45;&gt;LoginModule -->
<g id="edge27" class="edge">
<title>LoginRoutingModule&#45;&gt;LoginModule</title>
<path fill="none" stroke="black" d="M177.28,-122.01C177.28,-122.01 177.28,-151.85 177.28,-151.85"/>
<polygon fill="black" stroke="black" points="173.78,-151.85 177.28,-161.85 180.78,-151.85 173.78,-151.85"/>
</g>
<!-- PageAddOrdersComponent -->
<g id="node30" class="node">
<title>PageAddOrdersComponent</title>
<polygon fill="#ffffb3" stroke="black" points="2714.24,-122 2543.76,-122 2543.76,-86 2714.24,-86 2714.24,-122"/>
<text text-anchor="middle" x="2629" y="-99.8" font-family="Times,serif" font-size="14.00">PageAddOrdersComponent</text>
</g>
<!-- OrdersModule -->
<g id="node33" class="node">
<title>OrdersModule</title>
<polygon fill="#8dd3c7" stroke="black" points="2395.64,-198 2392.64,-202 2371.64,-202 2368.64,-198 2298.36,-198 2298.36,-162 2395.64,-162 2395.64,-198"/>
<text text-anchor="middle" x="2347" y="-175.8" font-family="Times,serif" font-size="14.00">OrdersModule</text>
</g>
<!-- PageAddOrdersComponent&#45;&gt;OrdersModule -->
<g id="edge28" class="edge">
<title>PageAddOrdersComponent&#45;&gt;OrdersModule</title>
<path fill="none" stroke="black" d="M2597.7,-122.01C2597.7,-144.49 2597.7,-180 2597.7,-180 2597.7,-180 2405.93,-180 2405.93,-180"/>
<polygon fill="black" stroke="black" points="2405.93,-176.5 2395.93,-180 2405.93,-183.5 2405.93,-176.5"/>
</g>
<!-- PageEditOrdersComponent -->
<g id="node31" class="node">
<title>PageEditOrdersComponent</title>
<polygon fill="#ffffb3" stroke="black" points="2525.97,-122 2356.03,-122 2356.03,-86 2525.97,-86 2525.97,-122"/>
<text text-anchor="middle" x="2441" y="-99.8" font-family="Times,serif" font-size="14.00">PageEditOrdersComponent</text>
</g>
<!-- PageEditOrdersComponent&#45;&gt;OrdersModule -->
<g id="edge29" class="edge">
<title>PageEditOrdersComponent&#45;&gt;OrdersModule</title>
<path fill="none" stroke="black" d="M2375.92,-122.01C2375.92,-122.01 2375.92,-151.85 2375.92,-151.85"/>
<polygon fill="black" stroke="black" points="2372.42,-151.85 2375.92,-161.85 2379.42,-151.85 2372.42,-151.85"/>
</g>
<!-- PageListOrdersComponent -->
<g id="node32" class="node">
<title>PageListOrdersComponent</title>
<polygon fill="#ffffb3" stroke="black" points="2338.41,-122 2169.59,-122 2169.59,-86 2338.41,-86 2338.41,-122"/>
<text text-anchor="middle" x="2254" y="-99.8" font-family="Times,serif" font-size="14.00">PageListOrdersComponent</text>
</g>
<!-- PageListOrdersComponent&#45;&gt;OrdersModule -->
<g id="edge30" class="edge">
<title>PageListOrdersComponent&#45;&gt;OrdersModule</title>
<path fill="none" stroke="black" d="M2318.19,-122.01C2318.19,-122.01 2318.19,-151.85 2318.19,-151.85"/>
<polygon fill="black" stroke="black" points="2314.69,-151.85 2318.19,-161.85 2321.69,-151.85 2314.69,-151.85"/>
</g>
<!-- OrdersRoutingModule -->
<g id="node34" class="node">
<title>OrdersRoutingModule</title>
<polygon fill="#8dd3c7" stroke="black" points="2146.25,-122 2143.25,-126 2122.25,-126 2119.25,-122 2003.75,-122 2003.75,-86 2146.25,-86 2146.25,-122"/>
<text text-anchor="middle" x="2075" y="-99.8" font-family="Times,serif" font-size="14.00">OrdersRoutingModule</text>
</g>
<!-- OrdersRoutingModule&#45;&gt;OrdersModule -->
<g id="edge31" class="edge">
<title>OrdersRoutingModule&#45;&gt;OrdersModule</title>
<path fill="none" stroke="black" d="M2113.74,-122.2C2113.74,-146.36 2113.74,-186 2113.74,-186 2113.74,-186 2288.1,-186 2288.1,-186"/>
<polygon fill="black" stroke="black" points="2288.1,-189.5 2298.1,-186 2288.1,-182.5 2288.1,-189.5"/>
</g>
<!-- PageNotFoundComponent -->
<g id="node35" class="node">
<title>PageNotFoundComponent</title>
<polygon fill="#ffffb3" stroke="black" points="3216.82,-122 3051.18,-122 3051.18,-86 3216.82,-86 3216.82,-122"/>
<text text-anchor="middle" x="3134" y="-99.8" font-family="Times,serif" font-size="14.00">PageNotFoundComponent</text>
</g>
<!-- PageNotFoundModule -->
<g id="node36" class="node">
<title>PageNotFoundModule</title>
<polygon fill="#8dd3c7" stroke="black" points="3104.54,-198 3101.54,-202 3080.54,-202 3077.54,-198 2961.46,-198 2961.46,-162 3104.54,-162 3104.54,-198"/>
<text text-anchor="middle" x="3033" y="-175.8" font-family="Times,serif" font-size="14.00">PageNotFoundModule</text>
</g>
<!-- PageNotFoundComponent&#45;&gt;PageNotFoundModule -->
<g id="edge32" class="edge">
<title>PageNotFoundComponent&#45;&gt;PageNotFoundModule</title>
<path fill="none" stroke="black" d="M3078.05,-122.01C3078.05,-122.01 3078.05,-151.85 3078.05,-151.85"/>
<polygon fill="black" stroke="black" points="3074.55,-151.85 3078.05,-161.85 3081.55,-151.85 3074.55,-151.85"/>
</g>
<!-- PageNotFoundRoutingModule -->
<g id="node37" class="node">
<title>PageNotFoundRoutingModule</title>
<polygon fill="#8dd3c7" stroke="black" points="3027.16,-122 3024.16,-126 3003.16,-126 3000.16,-122 2838.84,-122 2838.84,-86 3027.16,-86 3027.16,-122"/>
<text text-anchor="middle" x="2933" y="-99.8" font-family="Times,serif" font-size="14.00">PageNotFoundRoutingModule</text>
</g>
<!-- PageNotFoundRoutingModule&#45;&gt;PageNotFoundModule -->
<g id="edge33" class="edge">
<title>PageNotFoundRoutingModule&#45;&gt;PageNotFoundModule</title>
<path fill="none" stroke="black" d="M2994.28,-122.01C2994.28,-122.01 2994.28,-151.85 2994.28,-151.85"/>
<polygon fill="black" stroke="black" points="2990.78,-151.85 2994.28,-161.85 2997.78,-151.85 2990.78,-151.85"/>
</g>
<!-- Ui2Component -->
<g id="node38" class="node">
<title>Ui2Component</title>
<polygon fill="#ffffb3" stroke="black" points="3302.33,-266 3199.67,-266 3199.67,-230 3302.33,-230 3302.33,-266"/>
<text text-anchor="middle" x="3251" y="-243.8" font-family="Times,serif" font-size="14.00">Ui2Component</text>
</g>
<!-- Ui2Component&#45;&gt;UiModule -->
<g id="edge34" class="edge">
<title>Ui2Component&#45;&gt;UiModule</title>
<path fill="none" stroke="black" d="M3208.25,-229.54C3208.25,-199.17 3208.25,-142 3208.25,-142 3208.25,-142 661,-142 661,-142 661,-142 661,-151.89 661,-151.89"/>
<polygon fill="black" stroke="black" points="657.5,-151.89 661,-161.89 664.5,-151.89 657.5,-151.89"/>
</g>
<!-- UiComponent -->
<g id="node39" class="node">
<title>UiComponent</title>
<polygon fill="#ffffb3" stroke="black" points="3181.83,-266 3086.17,-266 3086.17,-230 3181.83,-230 3181.83,-266"/>
<text text-anchor="middle" x="3134" y="-243.8" font-family="Times,serif" font-size="14.00">UiComponent</text>
</g>
<!-- UiComponent&#45;&gt;UiModule -->
<g id="edge35" class="edge">
<title>UiComponent&#45;&gt;UiModule</title>
<path fill="none" stroke="black" d="M3134,-266.13C3134,-276.71 3134,-288 3134,-288 3134,-288 653.65,-288 653.65,-288 653.65,-288 653.65,-208.32 653.65,-208.32"/>
<polygon fill="black" stroke="black" points="657.15,-208.32 653.65,-198.32 650.15,-208.32 657.15,-208.32"/>
</g>
</g>
</svg>
